<svg width="317" height="320" viewBox="0 0 317 320" fill="none" xmlns="http://www.w3.org/2000/svg">
<path d="M296.433 76.3584C295.431 74.6517 294.375 72.9664 293.263 71.3024C278.573 49.3184 253.289 34.2848 228.405 27.52C217.49 24.5885 206.276 22.9371 194.987 22.5984C121.056 20.0384 91.6067 78.8864 67.1723 94.0672C42.7379 109.248 5.14174 135.149 7.64604 189.542C10.1503 243.936 49.0019 295.142 124.188 298.342C199.374 301.542 204.389 267.334 246.366 254.72C274.148 246.349 293.916 218.074 303.553 191.942C316.721 156.301 316.1 110.042 296.433 76.3584Z" fill="#2AD882"/>
<path opacity="0.7" d="M296.433 76.3584C295.431 74.6517 294.375 72.9664 293.263 71.3024C278.573 49.3184 253.289 34.2848 228.405 27.52C217.49 24.5885 206.276 22.9371 194.987 22.5984C121.056 20.0384 91.6067 78.8864 67.1723 94.0672C42.7379 109.248 5.14174 135.149 7.64604 189.542C10.1503 243.936 49.0019 295.142 124.188 298.342C199.374 301.542 204.389 267.334 246.366 254.72C274.148 246.349 293.916 218.074 303.553 191.942C316.721 156.301 316.1 110.042 296.433 76.3584Z" fill="white"/>
<path d="M272.785 29.088C271.174 27.3984 268.347 25.8432 263.516 25.7216C252.598 25.4528 255.502 33.28 252.598 35.1296C249.695 36.9792 248.87 34.0544 245.941 35.936C243.012 37.8176 244.344 41.5808 241.953 42.1184C239.563 42.656 236.362 39.68 233.432 41.6C230.503 43.52 230.503 45.0944 229.172 45.0944C227.841 45.0944 225.178 44.0192 223.58 45.0944C221.982 46.1696 220.118 47.5136 220.118 47.5136H248.706" stroke="#263238" stroke-linecap="round" stroke-linejoin="round"/>
<path d="M275.79 33.92C275.53 33.792 275.257 33.664 274.966 33.536C274.837 32.5323 274.502 31.5668 273.983 30.7008" stroke="#263238" stroke-linecap="round" stroke-linejoin="round"/>
<path d="M252.364 47.4945H287.475C287.475 47.4945 288.273 45.0753 285.344 43.4625C282.415 41.8497 281.09 43.1937 280.025 41.8497C279.074 40.6529 282.136 37.7537 277.178 34.6625" stroke="#263238" stroke-linecap="round" stroke-linejoin="round"/>
<path d="M78.895 40.32C78.261 39.68 77.1768 39.04 75.2938 39.04C71.0587 38.9376 72.1936 41.9648 71.0587 42.6944C69.9239 43.424 69.6132 42.2784 68.472 43.008C67.3308 43.7376 67.838 45.1968 66.925 45.408C66.0121 45.6192 64.7504 44.4672 63.6156 45.1968C62.4807 45.9264 62.4807 46.5536 61.9608 46.5536C61.4409 46.5536 60.4139 46.1376 59.7925 46.5536C59.1712 46.9696 58.4485 47.4944 58.4485 47.4944H69.5435" stroke="#263238" stroke-linecap="round" stroke-linejoin="round"/>
<path d="M80.0615 42.2401L79.7382 42.0929C79.6915 41.7025 79.5617 41.327 79.3578 40.9921" stroke="#263238" stroke-linecap="round" stroke-linejoin="round"/>
<path d="M70.97 47.4944H84.5946C84.6681 47.1766 84.6251 46.8427 84.4736 46.5545C84.3221 46.2662 84.0723 46.0431 83.7704 45.9264C82.6356 45.2864 82.1157 45.824 81.7036 45.2864C81.2915 44.7488 82.5214 43.6928 80.6004 42.496" stroke="#263238" stroke-linecap="round" stroke-linejoin="round"/>
<path d="M231.607 22.5792C230.973 21.9392 229.895 21.2992 228.005 21.2992C223.802 21.1712 224.905 24.1984 223.802 24.96C222.699 25.7216 222.356 24.5376 221.215 25.2736C220.074 26.0096 220.581 27.4624 219.668 27.6736C218.755 27.8848 217.494 26.7328 216.359 27.4624C215.224 28.192 215.192 28.8 214.672 28.8C214.153 28.8 213.125 28.384 212.504 28.8C211.883 29.216 211.16 29.7408 211.16 29.7408H222.255" stroke="#263238" stroke-linecap="round" stroke-linejoin="round"/>
<path d="M232.773 24.448L232.45 24.3008C232.403 23.9105 232.273 23.535 232.069 23.2" stroke="#263238" stroke-linecap="round" stroke-linejoin="round"/>
<path d="M223.682 29.728H237.306C237.38 29.4103 237.337 29.0764 237.185 28.7881C237.034 28.4999 236.784 28.2768 236.482 28.16C235.347 27.52 234.827 28.0576 234.415 27.52C234.003 26.9824 235.214 25.9456 233.312 24.7424" stroke="#263238" stroke-linecap="round" stroke-linejoin="round"/>
<path d="M167.376 270.72C230.053 270.72 280.862 219.43 280.862 156.16C280.862 92.8902 230.053 41.6 167.376 41.6C104.699 41.6 53.89 92.8902 53.89 156.16C53.89 219.43 104.699 270.72 167.376 270.72Z" stroke="#263238" stroke-linejoin="round" stroke-dasharray="2 2"/>
<path d="M252.097 293.728H277.286" stroke="#263238" stroke-miterlimit="10"/>
<path d="M48.3488 293.728H247.615" stroke="#263238" stroke-miterlimit="10"/>
<path d="M259.407 224.806C259.17 224.809 258.937 224.749 258.729 224.634C258.562 224.544 258.414 224.422 258.294 224.275C258.174 224.128 258.084 223.958 258.029 223.775C257.974 223.593 257.956 223.401 257.975 223.211C257.994 223.021 258.05 222.837 258.139 222.669L262.837 213.798C263.026 213.475 263.331 213.237 263.689 213.135C264.047 213.034 264.43 213.076 264.758 213.253C265.085 213.43 265.333 213.728 265.448 214.085C265.562 214.442 265.536 214.83 265.373 215.168L260.669 224.038C260.547 224.27 260.366 224.463 260.144 224.599C259.921 224.734 259.667 224.806 259.407 224.806Z" fill="#263238"/>
<path d="M277.597 224.806C277.336 224.807 277.081 224.736 276.857 224.6C276.634 224.465 276.451 224.271 276.329 224.038L271.625 215.168C271.462 214.83 271.436 214.442 271.55 214.085C271.665 213.728 271.913 213.43 272.24 213.253C272.568 213.076 272.951 213.034 273.309 213.135C273.667 213.237 273.972 213.475 274.161 213.798L278.859 222.669C278.948 222.837 279.004 223.021 279.023 223.211C279.042 223.401 279.024 223.593 278.969 223.775C278.914 223.958 278.824 224.128 278.704 224.275C278.584 224.422 278.436 224.544 278.269 224.634C278.063 224.749 277.832 224.808 277.597 224.806Z" fill="#263238"/>
<path d="M268.499 218.816C275.611 218.816 281.376 212.996 281.376 205.818C281.376 198.639 275.611 192.819 268.499 192.819C261.387 192.819 255.622 198.639 255.622 205.818C255.622 212.996 261.387 218.816 268.499 218.816Z" fill="#2AD882" stroke="#263238" stroke-linecap="round" stroke-linejoin="round"/>
<path d="M268.499 216.96C274.595 216.96 279.537 211.971 279.537 205.818C279.537 199.664 274.595 194.675 268.499 194.675C262.403 194.675 257.461 199.664 257.461 205.818C257.461 211.971 262.403 216.96 268.499 216.96Z" fill="white" stroke="#263238" stroke-linecap="round" stroke-linejoin="round"/>
<path d="M268.702 197.568C268.702 197.568 268.499 206.643 268.499 205.818L270.743 210.355" stroke="#263238" stroke-miterlimit="10"/>
<path d="M275.79 192.205C275.545 190.488 274.695 188.917 273.396 187.781C272.097 186.645 270.436 186.02 268.718 186.02C266.999 186.02 265.338 186.645 264.039 187.781C262.74 188.917 261.89 190.488 261.645 192.205H275.79Z" fill="white" stroke="#263238" stroke-linecap="round" stroke-linejoin="round"/>
<path d="M268.499 206.643C268.951 206.643 269.317 206.274 269.317 205.818C269.317 205.362 268.951 204.992 268.499 204.992C268.047 204.992 267.681 205.362 267.681 205.818C267.681 206.274 268.047 206.643 268.499 206.643Z" fill="#263238" stroke="#263238" stroke-miterlimit="10"/>
<path d="M290.803 140.275C290.804 142.157 290.437 144.021 289.724 145.76C289.011 147.499 287.966 149.079 286.647 150.41C285.329 151.741 283.764 152.796 282.041 153.516C280.319 154.236 278.472 154.606 276.608 154.605C275.815 154.608 275.024 154.54 274.243 154.4C270.941 153.83 267.944 152.1 265.784 149.515C263.624 146.93 262.439 143.657 262.439 140.275C262.439 136.894 263.624 133.621 265.784 131.036C267.944 128.451 270.941 126.72 274.243 126.151C275.024 126.016 275.815 125.95 276.608 125.952C278.472 125.951 280.317 126.321 282.04 127.041C283.762 127.76 285.327 128.815 286.645 130.145C287.963 131.475 289.009 133.054 289.722 134.793C290.436 136.531 290.803 138.394 290.803 140.275Z" fill="#2AD882" stroke="#263238" stroke-linecap="round" stroke-linejoin="round"/>
<path d="M275.226 125.914C281.439 127.437 286.073 133.536 286.073 140.275C286.074 143.661 284.885 146.938 282.72 149.524C280.554 152.11 277.551 153.837 274.243 154.4" stroke="#263238" stroke-linecap="round" stroke-linejoin="round"/>
<path d="M266.534 129.952C268.949 129.952 272.645 130.752 275.803 134.65C281.02 141.082 287.969 141.69 290.29 135.821" stroke="#263238" stroke-linecap="round" stroke-linejoin="round"/>
<path d="M262.476 141.376C262.476 141.376 281.756 150.291 290.797 140.275" stroke="#263238" stroke-linecap="round" stroke-linejoin="round"/>
<path d="M267.903 151.411C270.386 151.745 272.913 151.409 275.226 150.438C279.86 148.39 283.975 147.322 285.94 148.685C286.218 148.851 286.46 149.073 286.652 149.335C286.844 149.598 286.981 149.897 287.056 150.214" stroke="#263238" stroke-linecap="round" stroke-linejoin="round"/>
<path d="M263.11 83.4815C263.11 89.8815 257.943 96.6271 252.966 96.6271C251.749 96.6271 248.598 96.6271 247.476 96.1983C241.338 93.8047 238.967 87.8783 238.967 82.7199C238.967 80.0447 239.766 77.1263 241.865 75.3407C244.648 72.9727 247.716 74.4639 250.95 74.4639C253.765 74.4639 257.708 73.2991 259.826 74.8991C262.596 76.9087 263.11 80.3071 263.11 83.4815Z" fill="white" stroke="#263238" stroke-linejoin="round"/>
<path d="M259.801 79.1936C259.395 79.9104 258.165 79.9616 257.055 79.3152C255.946 78.6688 255.382 77.568 255.787 76.8576C256.193 76.1472 257.423 76.0896 258.533 76.736C259.642 77.3824 260.213 78.4832 259.801 79.1936Z" fill="white" stroke="#263238" stroke-linejoin="round"/>
<path d="M250.335 75.4432L250.55 74.9376L253.562 67.8528L251.565 67.5392L249.568 74.6688L250.335 75.4432Z" fill="#263238" stroke="#263238" stroke-linejoin="round"/>
<path d="M250.798 70.6367C250.798 70.6367 249.416 67.5391 247.418 67.0783C245.421 66.6175 239.899 69.2479 239.899 69.2479C239.899 69.2479 242.657 71.2575 244.806 71.8783C246.956 72.4991 250.798 70.6367 250.798 70.6367Z" fill="#2AD882" stroke="#263238" stroke-linejoin="round"/>
<path d="M174.737 62.8544C174.293 60.3264 173.665 53.7408 174.204 51.3344C174.523 49.8641 174.642 48.3571 174.559 46.8544V37.952C174.818 36.7613 174.787 35.5251 174.47 34.3488C173.932 32.4288 169.823 28.3904 169.823 28.3904V26.9504H169.563L168.428 26.88H168.099H167.769L166.634 26.9248H166.374V28.3648C166.374 28.3648 162.266 32.4288 161.727 34.3232C161.417 35.5102 161.397 36.7557 161.67 37.952V46.7968C161.587 48.2995 161.707 49.8066 162.025 51.2768C162.564 53.7088 161.936 60.2944 161.492 62.7968C161.049 65.2992 161.226 67.2192 162.653 67.9168C163.845 68.5184 167.091 68.1216 168.13 67.968C169.177 68.1216 172.416 68.5184 173.608 67.9168C174.984 67.2768 175.187 65.3824 174.737 62.8544Z" fill="white" stroke="#263238" stroke-linejoin="round"/>
<path d="M172.993 51.7888C173.253 50.5268 173.351 49.2361 173.285 47.9488V43.6544H162.938V47.9488C162.872 49.2361 162.97 50.5268 163.23 51.7888C163.654 53.8688 163.154 59.4688 162.799 61.632C162.443 63.7952 162.583 65.4016 163.731 66.016C164.688 66.528 167.287 66.1888 168.124 66.0608C168.961 66.1888 171.56 66.528 172.518 66.016C173.665 65.376 173.786 63.7888 173.45 61.632C173.114 59.4752 172.568 53.8688 172.993 51.7888Z" fill="#2AD882"/>
<path d="M170.223 24.8704H165.93V27.3088H170.223V24.8704Z" fill="#263238" stroke="#263238" stroke-linejoin="round"/>
<path d="M161.905 37.0496H174.42" stroke="#263238" stroke-linejoin="round"/>
<path d="M166.958 46.0736H173.881" stroke="#263238" stroke-linejoin="round"/>
<path d="M162.355 46.0736H164.434" stroke="#263238" stroke-linejoin="round"/>
<path d="M77.5699 80.5889H80.6892L84.0874 74.1889L87.5364 81.8689L88.126 80.2881H92.4435L97.04 69.7473L100.001 79.5649H105.409C106.919 77.7916 107.71 75.5079 107.623 73.1712C107.536 70.8344 106.577 68.6171 104.94 66.9633C103.214 65.2218 100.875 64.2434 98.4348 64.2434C95.9951 64.2434 93.6552 65.2218 91.93 66.9633L90.979 67.9233L90.028 66.9569C88.2907 65.2798 85.9721 64.3558 83.5684 64.3826C81.1647 64.4094 78.8669 65.3849 77.1668 67.1004C75.4666 68.8158 74.4991 71.1349 74.4714 73.5613C74.4436 75.9877 75.3578 78.3287 77.0183 80.0833L77.5699 80.5889Z" fill="#2AD882" stroke="#263238" stroke-linejoin="round"/>
<path d="M98.8089 81.1329L96.7674 74.3489L93.496 81.8561H89.2355L87.6822 86.0481L83.9733 77.8241L81.6529 82.2145H79.1803L90.979 94.1249L103.856 81.1329H98.8089Z" fill="#2AD882" stroke="#263238" stroke-linejoin="round"/>
<path d="M47.9177 135.782C47.9177 135.782 47.3408 133.862 45.5973 133.44C43.8538 133.018 40.1829 133.632 39.606 131.488C39.029 129.344 41.7299 129.926 41.1529 128.166C40.576 126.406 36.3219 126.413 35.3518 123.091C34.3818 119.77 35.7386 116.262 38.2492 117.434C40.7599 118.605 41.9264 123.482 42.8901 125.434C43.8538 127.386 43.6636 123.482 46.3708 123.091C49.0779 122.701 51.7851 124.851 50.048 127.571C48.3108 130.291 48.3742 132.429 48.6912 133.818C48.9131 134.784 48.9702 134.707 48.9702 134.707L47.9177 135.782Z" fill="#2AD882" stroke="#263238" stroke-linejoin="round"/>
<path d="M38.2556 122.483C37.7199 121.697 37.3369 120.815 37.127 119.885" stroke="#263238" stroke-miterlimit="10"/>
<path d="M48.5517 135.322C48.1318 133.617 47.2922 132.048 46.1108 130.758C44.0884 128.474 41.4699 126.918 39.3904 124.147C39.2192 123.923 39.0671 123.712 38.9213 123.507" stroke="#263238" stroke-miterlimit="10"/>
<path d="M53.9851 132.602C53.9851 132.602 45.1471 134.387 45.1471 142.842C45.1471 151.296 69.0046 167.802 70.7734 164.698C72.5423 161.594 63.8565 143.091 61.6438 139.098C59.4312 135.104 57.06 132.154 53.9851 132.602Z" fill="white" stroke="#263238" stroke-miterlimit="10"/>
<path d="M47.7275 149.05C47.7275 149.05 50.8214 144.365 53.7188 143.002" stroke="#263238" stroke-miterlimit="10"/>
<path d="M63.1908 144.365C61.0265 145.278 59.0569 146.603 57.3897 148.269" stroke="#263238" stroke-miterlimit="10"/>
<path d="M58.962 158.81C59.9063 156.595 61.5341 154.747 63.6029 153.542" stroke="#263238" stroke-miterlimit="10"/>
<path d="M58.3597 140.269L56.426 141.44" stroke="#263238" stroke-miterlimit="10"/>
<path d="M66.2847 152.173L64.9343 152.563" stroke="#263238" stroke-miterlimit="10"/>
<path d="M63.2035 219.795C71.1518 219.795 77.5953 213.291 77.5953 205.267C77.5953 197.244 71.1518 190.739 63.2035 190.739C55.2551 190.739 48.8117 197.244 48.8117 205.267C48.8117 213.291 55.2551 219.795 63.2035 219.795Z" fill="#2AD882" stroke="#263238" stroke-linecap="round" stroke-linejoin="round"/>
<path d="M66.9504 195.2C66.9504 197.683 64.7124 203.034 63.2035 203.034C61.6945 203.034 59.4565 197.683 59.4565 195.2C59.4565 192.717 61.6945 192 63.2035 192C64.7124 192 66.9504 192.704 66.9504 195.2Z" fill="white" stroke="#263238" stroke-linecap="round" stroke-linejoin="round"/>
<path d="M56.426 196.947C58.5562 198.189 62.2525 202.278 61.498 203.597C60.7435 204.915 54.8156 204.742 52.6791 203.501C50.5425 202.259 51.0433 199.936 51.7978 198.618C52.5523 197.299 54.3021 195.706 56.426 196.947Z" fill="white" stroke="#263238" stroke-linecap="round" stroke-linejoin="round"/>
<path d="M52.6791 207.027C54.8093 205.786 60.9211 204.698 61.6565 206.016C62.3919 207.334 58.5626 212.339 56.4323 213.581C54.3021 214.822 52.5523 213.235 51.7978 211.917C51.0433 210.598 50.5488 208.269 52.6791 207.027Z" fill="white" stroke="#263238" stroke-linecap="round" stroke-linejoin="round"/>
<path d="M59.4565 215.347C59.4565 212.864 61.6945 206.81 63.2035 206.81C64.7124 206.81 66.9504 212.864 66.9504 215.347C66.9504 217.83 64.7124 218.547 63.2035 218.547C61.6945 218.547 59.4565 217.83 59.4565 215.347Z" fill="white" stroke="#263238" stroke-linecap="round" stroke-linejoin="round"/>
<path d="M69.9746 213.581C67.8443 212.339 64.3383 207.654 65.0991 206.336C65.8599 205.018 71.5913 205.786 73.7215 207.027C75.8518 208.269 75.3636 210.592 74.6091 211.917C73.8547 213.242 72.1048 214.822 69.9746 213.581Z" fill="white" stroke="#263238" stroke-linecap="round" stroke-linejoin="round"/>
<path d="M73.7279 203.52C71.5913 204.762 65.8536 205.299 65.0991 203.981C64.3447 202.662 67.8443 198.221 69.9746 196.941C72.1048 195.661 73.8547 197.293 74.6091 198.611C75.3636 199.93 75.8581 202.24 73.7279 203.52Z" fill="white" stroke="#263238" stroke-linecap="round" stroke-linejoin="round"/>
<path d="M274.839 255.642C274.839 255.642 275.372 253.69 275.391 253.562C275.593 252.077 275.124 249.082 273.628 248.365C273.377 248.25 273.104 248.191 272.828 248.189C272.553 248.188 272.28 248.246 272.027 248.358C271.775 248.47 271.549 248.635 271.364 248.841C271.179 249.047 271.038 249.291 270.953 249.555C270.553 250.669 271.06 252.032 271.663 252.973C272.373 254.08 274.839 255.642 274.839 255.642Z" fill="#263238"/>
<path d="M245.358 254.995C246.55 255.52 249.466 255.456 249.466 255.456C249.466 255.456 248.832 253.536 248.782 253.414C248.148 252.064 246.119 249.83 244.477 250.054C244.204 250.1 243.945 250.203 243.714 250.356C243.484 250.51 243.288 250.71 243.139 250.945C242.99 251.18 242.892 251.443 242.85 251.719C242.809 251.994 242.825 252.275 242.898 252.544C243.171 253.696 244.344 254.547 245.358 254.995Z" fill="#263238"/>
<path d="M246.366 263.52C247.634 263.699 250.202 262.938 250.405 262.88C250.833 264.382 251.36 265.853 251.983 267.283C252.345 268.122 252.731 268.954 253.124 269.779C252.89 269.434 252.674 269.139 252.643 269.082C251.673 267.949 249.137 266.336 247.609 266.989C247.358 267.105 247.134 267.273 246.951 267.483C246.769 267.692 246.632 267.937 246.549 268.204C246.467 268.47 246.44 268.75 246.472 269.027C246.504 269.304 246.593 269.571 246.734 269.811C247.298 270.848 248.636 271.36 249.752 271.52C250.867 271.68 253.093 271.078 253.682 270.912C253.835 271.226 253.987 271.552 254.145 271.859C254.9 273.376 255.654 274.88 256.358 276.384C256.605 276.915 256.827 277.446 257.049 277.971C256.84 277.664 256.662 277.402 256.631 277.363C255.66 276.23 253.124 274.618 251.597 275.277C251.346 275.392 251.122 275.56 250.939 275.769C250.757 275.977 250.62 276.222 250.537 276.488C250.455 276.754 250.429 277.034 250.46 277.31C250.492 277.587 250.581 277.853 250.722 278.093C251.292 279.13 252.624 279.642 253.739 279.808C254.855 279.974 256.865 279.424 257.543 279.226C257.759 279.776 257.975 280.326 258.177 280.87C258.292 281.242 258.431 281.594 258.526 281.971C258.621 282.349 258.735 282.72 258.837 283.091C259.008 283.808 259.186 284.544 259.338 285.248C259.445 285.734 259.534 286.202 259.629 286.669C259.395 286.144 258.9 285.114 258.85 285.037C258.063 283.757 255.8 281.786 254.19 282.202C253.925 282.278 253.679 282.41 253.469 282.589C253.258 282.768 253.087 282.989 252.967 283.24C252.848 283.49 252.782 283.763 252.774 284.04C252.766 284.318 252.816 284.595 252.922 284.851C253.321 285.965 254.583 286.675 255.641 287.008C256.808 287.366 259.388 287.008 259.712 287.008C259.864 287.782 260.01 288.544 260.13 289.261C260.396 290.758 260.593 292.115 260.764 293.274H261.842C261.658 292.07 261.417 290.656 261.107 289.082C260.954 288.288 260.771 287.443 260.58 286.579C261.357 286.266 262.115 285.907 262.85 285.504C263.7 286.432 265.874 287.52 266.16 287.661C265.862 288.397 265.57 289.107 265.278 289.773C264.714 291.091 264.175 292.262 263.693 293.274H264.866C265.272 292.346 265.722 291.309 266.185 290.163C266.489 289.414 266.819 288.614 267.111 287.782C267.421 287.853 269.976 288.378 271.168 288.102C272.252 287.859 273.558 287.238 274.04 286.182C274.163 285.933 274.232 285.66 274.244 285.381C274.255 285.102 274.208 284.824 274.106 284.565C274.003 284.306 273.848 284.072 273.65 283.877C273.452 283.683 273.215 283.533 272.956 283.437C271.384 282.906 268.981 284.717 268.1 285.914C268.049 285.984 267.567 286.822 267.275 287.354C267.402 287.014 267.529 286.714 267.649 286.336C267.903 285.645 268.131 284.947 268.385 284.198C268.493 283.834 268.6 283.462 268.715 283.085C268.829 282.707 268.911 282.317 269.006 281.926C269.222 281.018 269.393 280.09 269.551 279.149C270.147 279.366 272.29 280.122 273.4 280.045C274.509 279.968 275.891 279.552 276.532 278.56C276.692 278.334 276.803 278.077 276.858 277.804C276.912 277.532 276.91 277.252 276.85 276.98C276.79 276.709 276.674 276.454 276.51 276.231C276.346 276.008 276.138 275.823 275.898 275.686C274.421 274.918 271.777 276.326 270.724 277.389C270.661 277.459 269.989 278.298 269.628 278.771C269.716 278.202 269.811 277.638 269.881 277.062C270.084 275.398 270.242 273.709 270.401 272.026C270.452 271.514 270.509 271.002 270.559 270.483C270.775 270.566 273.305 271.514 274.547 271.424C275.651 271.347 277.033 270.938 277.673 269.946C277.833 269.72 277.944 269.462 277.999 269.19C278.054 268.918 278.051 268.637 277.991 268.366C277.931 268.095 277.816 267.84 277.652 267.617C277.488 267.394 277.279 267.208 277.039 267.072C275.562 266.304 272.918 267.712 271.866 268.774C271.789 268.858 270.826 270.054 270.598 270.387C270.718 269.261 270.845 268.128 271.016 267.027C271.238 265.531 271.558 264.052 271.973 262.598C272.068 262.637 274.706 263.642 275.98 263.546C277.083 263.469 278.465 263.059 279.106 262.067C279.266 261.841 279.377 261.584 279.432 261.312C279.486 261.039 279.484 260.759 279.424 260.488C279.364 260.217 279.249 259.961 279.084 259.738C278.92 259.515 278.712 259.33 278.472 259.194C276.995 258.426 274.351 259.834 273.298 260.896C273.229 260.966 272.5 261.888 272.157 262.336L272.075 262.291C272.529 260.841 273.112 259.436 273.818 258.093C274.192 257.344 274.598 256.653 275.004 255.987C275.473 256.224 277.641 257.267 278.808 257.338C279.974 257.408 281.344 257.126 282.079 256.211C282.261 256.002 282.398 255.757 282.48 255.491C282.562 255.225 282.588 254.945 282.555 254.669C282.523 254.392 282.434 254.126 282.293 253.886C282.152 253.647 281.962 253.441 281.737 253.28C280.355 252.352 277.572 253.466 276.411 254.4C276.348 254.451 275.777 255.04 275.346 255.469C275.53 255.174 275.72 254.867 275.904 254.586C276.602 253.53 277.299 252.602 277.927 251.789C278.288 251.334 278.624 250.925 278.941 250.547C279.524 250.547 281.87 250.464 282.903 249.978C283.937 249.491 285.046 248.614 285.294 247.456C285.359 247.186 285.368 246.904 285.319 246.63C285.27 246.356 285.165 246.096 285.011 245.865C284.856 245.635 284.655 245.44 284.421 245.293C284.187 245.146 283.925 245.05 283.652 245.011C281.997 244.832 280.038 247.117 279.429 248.486C279.378 248.602 278.795 250.547 278.795 250.547H278.827C278.516 250.906 278.193 251.29 277.831 251.725C277.197 252.525 276.462 253.434 275.746 254.477C274.954 255.594 274.23 256.759 273.577 257.965C272.838 259.306 272.219 260.711 271.726 262.163C271.726 262.163 271.726 262.202 271.726 262.221C271.726 261.728 271.726 260.352 271.726 260.25C271.536 258.765 270.3 256.006 268.67 255.706C268.391 255.643 268.103 255.642 267.824 255.704C267.545 255.765 267.282 255.887 267.055 256.061C266.827 256.236 266.64 256.458 266.506 256.713C266.372 256.967 266.295 257.248 266.28 257.536C266.185 258.72 267.034 259.898 267.859 260.64C268.791 261.485 271.377 262.298 271.58 262.362C271.117 263.852 270.753 265.373 270.49 266.912C270.331 267.808 270.198 268.717 270.078 269.632C270.078 269.21 270.078 268.826 270.078 268.774C269.887 267.29 268.651 264.531 267.022 264.23C266.749 264.187 266.471 264.202 266.204 264.274C265.938 264.347 265.69 264.475 265.475 264.651C265.261 264.826 265.086 265.045 264.962 265.294C264.837 265.542 264.766 265.815 264.752 266.093C264.657 267.277 265.507 268.454 266.331 269.203C267.155 269.952 269.361 270.694 269.938 270.88C269.9 271.232 269.849 271.584 269.811 271.93C269.608 273.613 269.418 275.296 269.177 276.934C269.095 277.517 268.987 278.08 268.886 278.65C268.886 278.272 268.886 277.952 268.886 277.907C268.696 276.422 267.466 273.664 265.83 273.363C265.557 273.32 265.279 273.335 265.012 273.407C264.746 273.479 264.498 273.608 264.283 273.783C264.069 273.959 263.894 274.178 263.77 274.427C263.645 274.675 263.574 274.947 263.56 275.226C263.465 276.403 264.315 277.587 265.139 278.33C265.963 279.072 267.954 279.75 268.645 279.981C268.524 280.557 268.404 281.133 268.264 281.69C268.157 282.067 268.081 282.438 267.954 282.81C267.827 283.181 267.719 283.546 267.599 283.91C267.351 284.602 267.098 285.318 266.838 285.99C266.66 286.451 266.483 286.893 266.305 287.341C266.394 286.765 266.546 285.638 266.546 285.542C266.53 284.225 266.179 282.933 265.526 281.792C265.538 281.647 265.538 281.502 265.526 281.357C265.491 281.081 265.399 280.815 265.257 280.576C265.114 280.338 264.923 280.133 264.696 279.974C264.469 279.815 264.212 279.707 263.941 279.655C263.67 279.603 263.391 279.609 263.123 279.674C261.519 280.102 260.498 282.944 260.422 284.442C260.422 284.531 260.473 285.491 260.523 286.099C260.441 285.747 260.365 285.402 260.276 285.043C260.111 284.326 259.921 283.616 259.718 282.848C259.61 282.483 259.503 282.112 259.388 281.741C259.274 281.37 259.128 280.992 259.002 280.608C258.685 279.731 258.317 278.861 257.937 277.99C258.571 277.837 260.752 277.274 261.639 276.589C262.527 275.904 263.446 274.797 263.44 273.613C263.447 273.335 263.396 273.058 263.29 272.801C263.184 272.544 263.026 272.312 262.826 272.12C262.625 271.929 262.387 271.782 262.127 271.69C261.867 271.598 261.591 271.561 261.316 271.584C259.667 271.763 258.235 274.419 257.93 275.885C257.93 275.974 257.816 277.05 257.772 277.645C257.537 277.12 257.303 276.602 257.049 276.083C256.314 274.579 255.515 273.088 254.735 271.603L254.025 270.227C254.24 270.176 256.871 269.587 257.86 268.794C258.735 268.115 259.667 267.002 259.661 265.818C259.669 265.539 259.619 265.262 259.513 265.004C259.408 264.747 259.25 264.514 259.049 264.323C258.849 264.131 258.61 263.985 258.35 263.893C258.089 263.801 257.812 263.765 257.537 263.789C255.889 263.968 254.456 266.624 254.158 268.09C254.158 268.198 253.993 269.747 253.98 270.144C253.461 269.133 252.947 268.122 252.49 267.104C251.858 265.734 251.316 264.323 250.867 262.88C250.969 262.88 253.714 262.24 254.729 261.44C255.61 260.762 256.542 259.648 256.529 258.464C256.536 258.185 256.485 257.909 256.379 257.651C256.274 257.394 256.116 257.162 255.915 256.97C255.715 256.778 255.477 256.631 255.217 256.537C254.957 256.444 254.68 256.407 254.405 256.429C252.757 256.614 251.324 259.27 251.026 260.736C251.026 260.832 250.899 262.016 250.861 262.573H250.766C250.355 261.107 250.073 259.608 249.923 258.093C249.828 257.261 249.783 256.461 249.764 255.68C250.284 255.616 252.674 255.296 253.663 254.688C254.652 254.08 255.654 253.107 255.775 251.93C255.813 251.653 255.793 251.37 255.716 251.102C255.638 250.833 255.505 250.584 255.326 250.371C255.146 250.158 254.923 249.986 254.673 249.867C254.422 249.747 254.15 249.682 253.873 249.677C252.218 249.677 250.5 252.154 250.069 253.574C250.069 253.658 249.878 254.47 249.764 255.066C249.764 254.714 249.764 254.349 249.764 254.01C249.764 252.73 249.847 251.584 249.923 250.554C249.974 249.971 250.031 249.446 250.088 248.954C250.569 248.621 252.484 247.251 253.08 246.272C253.676 245.293 254.126 243.942 253.714 242.842C253.622 242.579 253.476 242.338 253.286 242.136C253.096 241.934 252.865 241.774 252.61 241.668C252.354 241.562 252.08 241.511 251.803 241.519C251.527 241.527 251.256 241.594 251.007 241.715C249.536 242.49 249.143 245.485 249.39 246.963C249.39 247.091 249.967 249.05 249.993 249.03H250.024C249.961 249.504 249.891 250.01 249.834 250.566C249.733 251.59 249.631 252.755 249.599 254.029C249.554 255.399 249.586 256.771 249.695 258.138C249.814 259.67 250.066 261.188 250.449 262.675V262.726C250.189 262.31 249.416 261.178 249.352 261.101C248.382 259.968 245.846 258.355 244.318 259.008C244.067 259.124 243.843 259.293 243.661 259.502C243.478 259.711 243.341 259.957 243.259 260.223C243.176 260.489 243.15 260.769 243.182 261.046C243.214 261.323 243.303 261.59 243.443 261.83C243.912 262.848 245.269 263.36 246.366 263.52Z" fill="#263238"/>
<path opacity="0.3" d="M245.358 254.995C246.55 255.52 249.466 255.456 249.466 255.456C249.466 255.456 248.832 253.536 248.782 253.414C248.148 252.064 246.119 249.83 244.477 250.054C244.204 250.1 243.945 250.203 243.714 250.356C243.484 250.51 243.288 250.71 243.139 250.945C242.99 251.18 242.892 251.443 242.85 251.719C242.809 251.994 242.825 252.275 242.898 252.544C243.171 253.696 244.344 254.547 245.358 254.995Z" fill="#263238"/>
<path opacity="0.3" d="M274.839 255.642C274.839 255.642 275.372 253.69 275.391 253.562C275.593 252.077 275.124 249.082 273.628 248.365C273.377 248.25 273.104 248.191 272.828 248.189C272.553 248.188 272.28 248.246 272.027 248.358C271.775 248.47 271.549 248.635 271.364 248.841C271.179 249.047 271.038 249.291 270.953 249.555C270.553 250.669 271.06 252.032 271.663 252.973C272.373 254.08 274.839 255.642 274.839 255.642Z" fill="#263238"/>
<path opacity="0.3" d="M246.366 263.52C247.634 263.699 250.202 262.938 250.405 262.88C250.833 264.382 251.36 265.853 251.983 267.283C252.345 268.122 252.731 268.954 253.124 269.779C252.89 269.434 252.674 269.139 252.643 269.082C251.673 267.949 249.137 266.336 247.609 266.989C247.358 267.105 247.134 267.273 246.951 267.483C246.769 267.692 246.632 267.937 246.549 268.204C246.467 268.47 246.44 268.75 246.472 269.027C246.504 269.304 246.593 269.571 246.734 269.811C247.298 270.848 248.636 271.36 249.752 271.52C250.867 271.68 253.093 271.078 253.682 270.912C253.835 271.226 253.987 271.552 254.145 271.859C254.9 273.376 255.654 274.88 256.358 276.384C256.605 276.915 256.827 277.446 257.049 277.971C256.84 277.664 256.662 277.402 256.631 277.363C255.66 276.23 253.124 274.618 251.597 275.277C251.346 275.392 251.122 275.56 250.939 275.769C250.757 275.977 250.62 276.222 250.537 276.488C250.455 276.754 250.429 277.034 250.46 277.31C250.492 277.587 250.581 277.853 250.722 278.093C251.292 279.13 252.624 279.642 253.739 279.808C254.855 279.974 256.865 279.424 257.543 279.226C257.759 279.776 257.975 280.326 258.177 280.87C258.292 281.242 258.431 281.594 258.526 281.971C258.621 282.349 258.735 282.72 258.837 283.091C259.008 283.808 259.186 284.544 259.338 285.248C259.445 285.734 259.534 286.202 259.629 286.669C259.395 286.144 258.9 285.114 258.85 285.037C258.063 283.757 255.8 281.786 254.19 282.202C253.925 282.278 253.679 282.41 253.469 282.589C253.258 282.768 253.087 282.989 252.967 283.24C252.848 283.49 252.782 283.763 252.774 284.04C252.766 284.318 252.816 284.595 252.922 284.851C253.321 285.965 254.583 286.675 255.641 287.008C256.808 287.366 259.388 287.008 259.712 287.008C259.864 287.782 260.01 288.544 260.13 289.261C260.396 290.758 260.593 292.115 260.764 293.274H261.842C261.658 292.07 261.417 290.656 261.107 289.082C260.954 288.288 260.771 287.443 260.58 286.579C261.357 286.266 262.115 285.907 262.85 285.504C263.7 286.432 265.874 287.52 266.16 287.661C265.862 288.397 265.57 289.107 265.278 289.773C264.714 291.091 264.175 292.262 263.693 293.274H264.866C265.272 292.346 265.722 291.309 266.185 290.163C266.489 289.414 266.819 288.614 267.111 287.782C267.421 287.853 269.976 288.378 271.168 288.102C272.252 287.859 273.558 287.238 274.04 286.182C274.163 285.933 274.232 285.66 274.244 285.381C274.255 285.102 274.208 284.824 274.106 284.565C274.003 284.306 273.848 284.072 273.65 283.877C273.452 283.683 273.215 283.533 272.956 283.437C271.384 282.906 268.981 284.717 268.1 285.914C268.049 285.984 267.567 286.822 267.275 287.354C267.402 287.014 267.529 286.714 267.649 286.336C267.903 285.645 268.131 284.947 268.385 284.198C268.493 283.834 268.6 283.462 268.715 283.085C268.829 282.707 268.911 282.317 269.006 281.926C269.222 281.018 269.393 280.09 269.551 279.149C270.147 279.366 272.29 280.122 273.4 280.045C274.509 279.968 275.891 279.552 276.532 278.56C276.692 278.334 276.803 278.077 276.858 277.804C276.912 277.532 276.91 277.252 276.85 276.98C276.79 276.709 276.674 276.454 276.51 276.231C276.346 276.008 276.138 275.823 275.898 275.686C274.421 274.918 271.777 276.326 270.724 277.389C270.661 277.459 269.989 278.298 269.628 278.771C269.716 278.202 269.811 277.638 269.881 277.062C270.084 275.398 270.242 273.709 270.401 272.026C270.452 271.514 270.509 271.002 270.559 270.483C270.775 270.566 273.305 271.514 274.547 271.424C275.651 271.347 277.033 270.938 277.673 269.946C277.833 269.72 277.944 269.462 277.999 269.19C278.054 268.918 278.051 268.637 277.991 268.366C277.931 268.095 277.816 267.84 277.652 267.617C277.488 267.394 277.279 267.208 277.039 267.072C275.562 266.304 272.918 267.712 271.866 268.774C271.789 268.858 270.826 270.054 270.598 270.387C270.718 269.261 270.845 268.128 271.016 267.027C271.238 265.531 271.558 264.052 271.973 262.598C272.068 262.637 274.706 263.642 275.98 263.546C277.083 263.469 278.465 263.059 279.106 262.067C279.266 261.841 279.377 261.584 279.432 261.312C279.486 261.039 279.484 260.759 279.424 260.488C279.364 260.217 279.249 259.961 279.084 259.738C278.92 259.515 278.712 259.33 278.472 259.194C276.995 258.426 274.351 259.834 273.298 260.896C273.229 260.966 272.5 261.888 272.157 262.336L272.075 262.291C272.529 260.841 273.112 259.436 273.818 258.093C274.192 257.344 274.598 256.653 275.004 255.987C275.473 256.224 277.641 257.267 278.808 257.338C279.974 257.408 281.344 257.126 282.079 256.211C282.261 256.002 282.398 255.757 282.48 255.491C282.562 255.225 282.588 254.945 282.555 254.669C282.523 254.392 282.434 254.126 282.293 253.886C282.152 253.647 281.962 253.441 281.737 253.28C280.355 252.352 277.572 253.466 276.411 254.4C276.348 254.451 275.777 255.04 275.346 255.469C275.53 255.174 275.72 254.867 275.904 254.586C276.602 253.53 277.299 252.602 277.927 251.789C278.288 251.334 278.624 250.925 278.941 250.547C279.524 250.547 281.87 250.464 282.903 249.978C283.937 249.491 285.046 248.614 285.294 247.456C285.359 247.186 285.368 246.904 285.319 246.63C285.27 246.356 285.165 246.096 285.011 245.865C284.856 245.635 284.655 245.44 284.421 245.293C284.187 245.146 283.925 245.05 283.652 245.011C281.997 244.832 280.038 247.117 279.429 248.486C279.378 248.602 278.795 250.547 278.795 250.547H278.827C278.516 250.906 278.193 251.29 277.831 251.725C277.197 252.525 276.462 253.434 275.746 254.477C274.954 255.594 274.23 256.759 273.577 257.965C272.838 259.306 272.219 260.711 271.726 262.163C271.726 262.163 271.726 262.202 271.726 262.221C271.726 261.728 271.726 260.352 271.726 260.25C271.536 258.765 270.3 256.006 268.67 255.706C268.391 255.643 268.103 255.642 267.824 255.704C267.545 255.765 267.282 255.887 267.055 256.061C266.827 256.236 266.64 256.458 266.506 256.713C266.372 256.967 266.295 257.248 266.28 257.536C266.185 258.72 267.034 259.898 267.859 260.64C268.791 261.485 271.377 262.298 271.58 262.362C271.117 263.852 270.753 265.373 270.49 266.912C270.331 267.808 270.198 268.717 270.078 269.632C270.078 269.21 270.078 268.826 270.078 268.774C269.887 267.29 268.651 264.531 267.022 264.23C266.749 264.187 266.471 264.202 266.204 264.274C265.938 264.347 265.69 264.475 265.475 264.651C265.261 264.826 265.086 265.045 264.962 265.294C264.837 265.542 264.766 265.815 264.752 266.093C264.657 267.277 265.507 268.454 266.331 269.203C267.155 269.952 269.361 270.694 269.938 270.88C269.9 271.232 269.849 271.584 269.811 271.93C269.608 273.613 269.418 275.296 269.177 276.934C269.095 277.517 268.987 278.08 268.886 278.65C268.886 278.272 268.886 277.952 268.886 277.907C268.696 276.422 267.466 273.664 265.83 273.363C265.557 273.32 265.279 273.335 265.012 273.407C264.746 273.479 264.498 273.608 264.283 273.783C264.069 273.959 263.894 274.178 263.77 274.427C263.645 274.675 263.574 274.947 263.56 275.226C263.465 276.403 264.315 277.587 265.139 278.33C265.963 279.072 267.954 279.75 268.645 279.981C268.524 280.557 268.404 281.133 268.264 281.69C268.157 282.067 268.081 282.438 267.954 282.81C267.827 283.181 267.719 283.546 267.599 283.91C267.351 284.602 267.098 285.318 266.838 285.99C266.66 286.451 266.483 286.893 266.305 287.341C266.394 286.765 266.546 285.638 266.546 285.542C266.53 284.225 266.179 282.933 265.526 281.792C265.538 281.647 265.538 281.502 265.526 281.357C265.491 281.081 265.399 280.815 265.257 280.576C265.114 280.338 264.923 280.133 264.696 279.974C264.469 279.815 264.212 279.707 263.941 279.655C263.67 279.603 263.391 279.609 263.123 279.674C261.519 280.102 260.498 282.944 260.422 284.442C260.422 284.531 260.473 285.491 260.523 286.099C260.441 285.747 260.365 285.402 260.276 285.043C260.111 284.326 259.921 283.616 259.718 282.848C259.61 282.483 259.503 282.112 259.388 281.741C259.274 281.37 259.128 280.992 259.002 280.608C258.685 279.731 258.317 278.861 257.937 277.99C258.571 277.837 260.752 277.274 261.639 276.589C262.527 275.904 263.446 274.797 263.44 273.613C263.447 273.335 263.396 273.058 263.29 272.801C263.184 272.544 263.026 272.312 262.826 272.12C262.625 271.929 262.387 271.782 262.127 271.69C261.867 271.598 261.591 271.561 261.316 271.584C259.667 271.763 258.235 274.419 257.93 275.885C257.93 275.974 257.816 277.05 257.772 277.645C257.537 277.12 257.303 276.602 257.049 276.083C256.314 274.579 255.515 273.088 254.735 271.603L254.025 270.227C254.24 270.176 256.871 269.587 257.86 268.794C258.735 268.115 259.667 267.002 259.661 265.818C259.669 265.539 259.619 265.262 259.513 265.004C259.408 264.747 259.25 264.514 259.049 264.323C258.849 264.131 258.61 263.985 258.35 263.893C258.089 263.801 257.812 263.765 257.537 263.789C255.889 263.968 254.456 266.624 254.158 268.09C254.158 268.198 253.993 269.747 253.98 270.144C253.461 269.133 252.947 268.122 252.49 267.104C251.858 265.734 251.316 264.323 250.867 262.88C250.969 262.88 253.714 262.24 254.729 261.44C255.61 260.762 256.542 259.648 256.529 258.464C256.536 258.185 256.485 257.909 256.379 257.651C256.274 257.394 256.116 257.162 255.915 256.97C255.715 256.778 255.477 256.631 255.217 256.537C254.957 256.444 254.68 256.407 254.405 256.429C252.757 256.614 251.324 259.27 251.026 260.736C251.026 260.832 250.899 262.016 250.861 262.573H250.766C250.355 261.107 250.073 259.608 249.923 258.093C249.828 257.261 249.783 256.461 249.764 255.68C250.284 255.616 252.674 255.296 253.663 254.688C254.652 254.08 255.654 253.107 255.775 251.93C255.813 251.653 255.793 251.37 255.716 251.102C255.638 250.833 255.505 250.584 255.326 250.371C255.146 250.158 254.923 249.986 254.673 249.867C254.422 249.747 254.15 249.682 253.873 249.677C252.218 249.677 250.5 252.154 250.069 253.574C250.069 253.658 249.878 254.47 249.764 255.066C249.764 254.714 249.764 254.349 249.764 254.01C249.764 252.73 249.847 251.584 249.923 250.554C249.974 249.971 250.031 249.446 250.088 248.954C250.569 248.621 252.484 247.251 253.08 246.272C253.676 245.293 254.126 243.942 253.714 242.842C253.622 242.579 253.476 242.338 253.286 242.136C253.096 241.934 252.865 241.774 252.61 241.668C252.354 241.562 252.08 241.511 251.803 241.519C251.527 241.527 251.256 241.594 251.007 241.715C249.536 242.49 249.143 245.485 249.39 246.963C249.39 247.091 249.967 249.05 249.993 249.03H250.024C249.961 249.504 249.891 250.01 249.834 250.566C249.733 251.59 249.631 252.755 249.599 254.029C249.554 255.399 249.586 256.771 249.695 258.138C249.814 259.67 250.066 261.188 250.449 262.675V262.726C250.189 262.31 249.416 261.178 249.352 261.101C248.382 259.968 245.846 258.355 244.318 259.008C244.067 259.124 243.843 259.293 243.661 259.502C243.478 259.711 243.341 259.957 243.259 260.223C243.176 260.489 243.15 260.769 243.182 261.046C243.214 261.323 243.303 261.59 243.443 261.83C243.912 262.848 245.269 263.36 246.366 263.52Z" fill="#263238"/>
<path d="M72.6627 255.642C72.6627 255.642 73.1953 253.69 73.2143 253.562C73.4172 252.077 72.948 249.082 71.4518 248.365C71.2004 248.25 70.928 248.191 70.6522 248.189C70.3765 248.188 70.1035 248.246 69.8512 248.358C69.5988 248.47 69.3727 248.635 69.1875 248.841C69.0024 249.047 68.8623 249.291 68.7763 249.555C68.3769 250.669 68.8841 252.032 69.4864 252.973C70.1965 254.08 72.6627 255.642 72.6627 255.642Z" fill="#263238"/>
<path d="M43.1817 254.995C44.3737 255.52 47.2837 255.456 47.2901 255.456C47.2964 255.456 46.6561 253.536 46.6053 253.414C45.9713 252.064 43.9425 249.83 42.3005 250.054C42.0282 250.1 41.7684 250.203 41.538 250.356C41.3075 250.51 41.1116 250.71 40.9628 250.945C40.814 251.18 40.7156 251.443 40.6741 251.719C40.6326 251.994 40.6489 252.275 40.7218 252.544C40.9944 253.696 42.1673 254.547 43.1817 254.995Z" fill="#263238"/>
<path d="M44.1835 263.52C45.4515 263.699 48.0255 262.938 48.2284 262.88C48.6567 264.382 49.1841 265.853 49.807 267.283C50.1663 268.137 50.5467 268.969 50.9482 269.779C50.7137 269.434 50.4981 269.139 50.4601 269.082C49.49 267.949 46.9604 266.336 45.4324 266.989C45.1814 267.105 44.9574 267.273 44.7748 267.482C44.5923 267.692 44.4553 267.937 44.3729 268.203C44.2904 268.47 44.2642 268.75 44.296 269.027C44.3278 269.304 44.4169 269.571 44.5575 269.811C45.1218 270.848 46.4595 271.36 47.569 271.52C48.6785 271.68 50.9165 271.078 51.5062 270.912C51.6583 271.226 51.8105 271.552 51.969 271.859C52.7234 273.376 53.4779 274.88 54.1753 276.384C54.4226 276.915 54.6508 277.446 54.8727 277.971C54.6635 277.664 54.4796 277.402 54.4479 277.363C53.4779 276.23 50.9482 274.618 49.4203 275.277C49.1695 275.392 48.9455 275.56 48.763 275.769C48.5805 275.977 48.4436 276.222 48.3611 276.488C48.2785 276.754 48.2523 277.034 48.2841 277.31C48.3158 277.587 48.4049 277.853 48.5454 278.093C49.1096 279.13 50.4474 279.642 51.5569 279.808C52.6664 279.974 54.6825 279.424 55.3609 279.226C55.5764 279.776 55.792 280.326 55.9949 280.87C56.109 281.242 56.2485 281.594 56.3436 281.971C56.4387 282.349 56.5528 282.72 56.6542 283.091C56.8254 283.808 57.0029 284.544 57.1551 285.248C57.2629 285.734 57.3516 286.202 57.4467 286.669C57.2058 286.144 56.7176 285.114 56.6669 285.037C55.8808 283.757 53.6174 281.786 52.007 282.202C51.7435 282.28 51.4991 282.413 51.2895 282.592C51.08 282.771 50.91 282.993 50.7905 283.242C50.6711 283.492 50.6048 283.764 50.5959 284.041C50.587 284.318 50.6358 284.594 50.739 284.851C51.1448 285.965 52.4064 286.675 53.4652 287.008C54.6318 287.366 57.2122 287.008 57.5355 287.008C57.6877 287.782 57.8335 288.544 57.9539 289.261C58.2139 290.758 58.4168 292.115 58.5879 293.274H59.6721C59.4819 292.07 59.2473 290.656 58.9366 289.082C58.7781 288.288 58.6006 287.443 58.4104 286.579C59.1872 286.266 59.945 285.907 60.6801 285.504C61.5297 286.432 63.7043 287.52 63.9896 287.661C63.6916 288.397 63.3937 289.107 63.1084 289.773C62.5441 291.091 62.0052 292.262 61.5234 293.274H62.6963C63.102 292.346 63.5522 291.309 64.015 290.163C64.3193 289.414 64.649 288.614 64.9406 287.782C65.2513 287.853 67.8063 288.378 68.9982 288.102C70.076 287.859 71.3884 287.238 71.8702 286.182C71.9932 285.933 72.0625 285.659 72.0738 285.381C72.0851 285.102 72.0381 284.824 71.9358 284.565C71.8335 284.306 71.6782 284.072 71.4801 283.877C71.282 283.683 71.0455 283.533 70.7861 283.437C69.2138 282.906 66.8109 284.717 65.9297 285.914C65.8789 285.984 65.3971 286.822 65.1055 287.354C65.2323 287.014 65.3591 286.714 65.4795 286.336C65.7331 285.645 65.9614 284.947 66.215 284.198C66.3227 283.834 66.4305 283.462 66.5446 283.085C66.6588 282.707 66.7348 282.317 66.8363 281.926C67.0518 281.018 67.223 280.09 67.3815 279.149C67.9775 279.366 70.1204 280.122 71.2299 280.045C72.3394 279.968 73.7215 279.552 74.3619 278.56C74.5218 278.334 74.6328 278.077 74.6876 277.804C74.7425 277.532 74.7399 277.251 74.6801 276.98C74.6203 276.709 74.5046 276.454 74.3405 276.231C74.1764 276.008 73.9677 275.822 73.7279 275.686C72.2506 274.918 69.6069 276.326 68.5544 277.389C68.491 277.459 67.819 278.298 67.4576 278.771C67.5464 278.202 67.6415 277.638 67.7112 277.062C67.9141 275.398 68.0662 273.709 68.2311 272.026C68.2818 271.514 68.3389 271.002 68.3896 270.483C68.6051 270.566 71.1285 271.514 72.3711 271.424C73.4806 271.347 74.8627 270.938 75.5031 269.946C75.663 269.72 75.774 269.462 75.8288 269.19C75.8837 268.918 75.8811 268.637 75.8213 268.366C75.7615 268.095 75.6458 267.84 75.4817 267.617C75.3176 267.394 75.1089 267.208 74.8691 267.072C73.3918 266.304 70.7481 267.712 69.6956 268.774C69.6195 268.858 68.6559 270.054 68.4276 270.387C68.5417 269.261 68.6749 268.128 68.8461 267.027C69.0682 265.531 69.388 264.052 69.8034 262.598C69.8985 262.637 72.5359 263.642 73.8103 263.546C74.9134 263.469 76.2956 263.059 76.9359 262.067C77.0958 261.841 77.2068 261.584 77.2617 261.312C77.3165 261.039 77.3139 260.759 77.2541 260.488C77.1943 260.216 77.0786 259.961 76.9145 259.738C76.7505 259.515 76.5417 259.33 76.3019 259.194C74.8247 258.426 72.1809 259.834 71.1285 260.896C71.0587 260.966 70.3296 261.888 69.9873 262.336L69.9048 262.291C70.3589 260.841 70.9425 259.436 71.6483 258.093C72.0224 257.344 72.4282 256.653 72.8339 255.987C73.3031 256.224 75.4714 257.267 76.6379 257.338C77.8045 257.408 79.1739 257.126 79.9094 256.211C80.0915 256.002 80.228 255.757 80.31 255.491C80.3921 255.225 80.4178 254.945 80.3855 254.669C80.3532 254.392 80.2636 254.126 80.1226 253.886C79.9816 253.647 79.7923 253.441 79.567 253.28C78.1849 252.352 75.4016 253.466 74.2414 254.4C74.178 254.451 73.6074 255.04 73.1699 255.469L73.7342 254.586C74.4316 253.53 75.129 252.602 75.7567 251.789C76.118 251.334 76.4541 250.925 76.7711 250.547C77.3543 250.547 79.7001 250.464 80.7272 249.978C81.7543 249.491 82.8765 248.614 83.1237 247.456C83.1893 247.185 83.1978 246.903 83.1487 246.629C83.0995 246.355 82.9938 246.094 82.8384 245.863C82.683 245.633 82.4814 245.438 82.2466 245.291C82.0117 245.144 81.749 245.049 81.4753 245.011C79.8269 244.832 77.8679 247.117 77.2592 248.486C77.2085 248.602 76.6252 250.547 76.6252 250.547C76.3146 250.906 75.9912 251.29 75.6299 251.725C74.9959 252.525 74.2604 253.434 73.5377 254.477C72.7506 255.596 72.0287 256.761 71.3757 257.965C70.6368 259.306 70.0173 260.711 69.5244 262.163C69.5244 262.163 69.5244 262.202 69.5244 262.221C69.5244 261.728 69.5244 260.352 69.5244 260.25C69.3342 258.765 68.0979 256.006 66.4686 255.706C66.196 255.662 65.9175 255.677 65.6511 255.749C65.3846 255.822 65.1363 255.95 64.9222 256.126C64.7081 256.301 64.533 256.521 64.4084 256.769C64.2838 257.018 64.2124 257.29 64.1988 257.568C64.1037 258.752 64.9533 259.93 65.7775 260.672C66.7095 261.517 69.2962 262.33 69.4991 262.394C69.0331 263.883 68.6688 265.404 68.4086 266.944C68.2501 267.84 68.117 268.749 67.9965 269.664C67.9965 269.242 67.9965 268.858 67.9965 268.806C67.8063 267.322 66.5763 264.563 64.9406 264.262C64.6686 264.22 64.3907 264.236 64.125 264.308C63.8594 264.381 63.6118 264.51 63.3984 264.685C63.1851 264.861 63.0106 265.08 62.8864 265.328C62.7621 265.576 62.6909 265.847 62.6772 266.125C62.5821 267.309 63.4254 268.486 64.2559 269.235C65.0864 269.984 67.2801 270.726 67.8634 270.912C67.8253 271.264 67.7746 271.616 67.7366 271.962C67.5337 273.645 67.3435 275.328 67.1026 276.966C67.0138 277.549 66.9124 278.112 66.8109 278.682C66.8109 278.304 66.8109 277.984 66.8109 277.939C66.6207 276.454 65.3844 273.696 63.755 273.395C63.4766 273.328 63.187 273.324 62.9066 273.382C62.6262 273.44 62.3617 273.559 62.1317 273.731C61.9016 273.903 61.7116 274.123 61.5747 274.377C61.4379 274.631 61.3576 274.912 61.3395 275.2C61.2444 276.378 62.094 277.562 62.9182 278.304C63.7424 279.046 65.7331 279.725 66.4242 279.955C66.3037 280.531 66.1833 281.107 66.0438 281.664C65.936 282.042 65.8599 282.413 65.7331 282.784C65.6063 283.155 65.4922 283.52 65.3781 283.885C65.1308 284.576 64.8772 285.293 64.6173 285.965C64.4398 286.426 64.2622 286.867 64.0847 287.315C64.1735 286.739 64.3256 285.613 64.3256 285.517C64.3098 284.199 63.9583 282.907 63.3049 281.766C63.3177 281.622 63.3177 281.476 63.3049 281.331C63.2672 281.054 63.1717 280.787 63.0247 280.549C62.8776 280.312 62.6824 280.108 62.4518 279.952C62.2212 279.796 61.9605 279.691 61.6868 279.644C61.4131 279.597 61.1327 279.61 60.864 279.68C59.2536 280.109 58.2392 282.95 58.1632 284.448C58.1632 284.538 58.2139 285.498 58.2646 286.106C58.1822 285.754 58.1061 285.408 58.0173 285.05C57.8525 284.333 57.6623 283.622 57.4594 282.854C57.3516 282.49 57.2439 282.118 57.1297 281.747C57.0156 281.376 56.8698 280.998 56.743 280.614C56.426 279.738 56.0583 278.867 55.6715 277.997C56.3055 277.843 58.4928 277.28 59.3741 276.595C60.2554 275.91 61.1873 274.803 61.181 273.619C61.1881 273.341 61.1372 273.064 61.0314 272.807C60.9256 272.55 60.7674 272.318 60.5671 272.127C60.3668 271.935 60.1288 271.789 59.8687 271.696C59.6085 271.604 59.332 271.568 59.0571 271.59C57.4024 271.77 55.9695 274.426 55.6715 275.891C55.6715 275.981 55.5574 277.056 55.513 277.651C55.2785 277.126 55.0439 276.608 54.7903 276.09C54.0485 274.586 53.256 273.094 52.4762 271.61L51.7598 270.234C51.9817 270.182 54.6128 269.594 55.6018 268.8C56.4767 268.122 57.4087 267.008 57.4024 265.824C57.4105 265.545 57.3602 265.268 57.2548 265.011C57.1494 264.753 56.9912 264.521 56.7907 264.329C56.5901 264.138 56.3517 263.991 56.0911 263.899C55.8305 263.807 55.5536 263.772 55.2785 263.795C53.6301 263.974 52.1972 266.63 51.8992 268.096C51.8992 268.205 51.7344 269.754 51.7217 270.15C51.2018 269.139 50.6883 268.128 50.2255 267.11C49.5978 265.739 49.0578 264.328 48.6088 262.886C48.7102 262.886 51.4554 262.246 52.4698 261.446C53.3448 260.768 54.2767 259.654 54.2704 258.47C54.2774 258.192 54.2265 257.915 54.1208 257.657C54.0151 257.4 53.857 257.168 53.6568 256.976C53.4566 256.784 53.2187 256.637 52.9585 256.544C52.6984 256.451 52.4217 256.414 52.1465 256.435C50.4981 256.621 49.0653 259.277 48.7673 260.742C48.7673 260.838 48.6405 262.022 48.6024 262.579H48.5073C48.093 261.115 47.8108 259.615 47.6641 258.099C47.569 257.267 47.5246 256.467 47.5056 255.686C48.0255 255.622 50.4157 255.302 51.4047 254.694C52.3938 254.086 53.3955 253.114 53.5159 251.936C53.5546 251.659 53.5345 251.377 53.4571 251.108C53.3797 250.84 53.2468 250.591 53.067 250.378C52.8872 250.165 52.6648 249.993 52.4143 249.873C52.1638 249.753 51.891 249.689 51.6139 249.683C49.9529 249.683 48.2411 252.16 47.8099 253.581C47.8099 253.664 47.6197 254.477 47.5056 255.072C47.5056 254.72 47.5056 254.355 47.5056 254.016C47.5056 252.736 47.5817 251.59 47.6641 250.56C47.7148 249.978 47.7656 249.453 47.829 248.96C48.3045 248.627 50.2255 247.258 50.8214 246.278C51.4174 245.299 51.8675 243.949 51.4554 242.848C51.3626 242.586 51.2162 242.346 51.0258 242.144C50.8354 241.942 50.6051 241.783 50.3499 241.677C50.0948 241.571 49.8203 241.52 49.5444 241.528C49.2685 241.535 48.9973 241.601 48.7483 241.722C47.2774 242.496 46.8843 245.491 47.1316 246.97C47.1316 247.098 47.7085 249.056 47.7339 249.037H47.7656C47.6958 249.51 47.6324 250.016 47.5754 250.573C47.4739 251.597 47.3725 252.762 47.3408 254.035C47.2952 255.405 47.327 256.777 47.4359 258.144C47.5516 259.667 47.802 261.177 48.184 262.656V262.707C47.9241 262.291 47.1506 261.158 47.0808 261.082C46.1108 259.949 43.5812 258.336 42.0532 258.989C41.8022 259.105 41.5781 259.273 41.3956 259.482C41.2131 259.692 41.0761 259.937 40.9936 260.203C40.9112 260.47 40.885 260.75 40.9168 261.027C40.9486 261.304 41.0377 261.571 41.1783 261.811C41.7362 262.848 43.112 263.36 44.1835 263.52Z" fill="#263238"/>
<path opacity="0.3" d="M43.1817 254.995C44.3737 255.52 47.2837 255.456 47.2901 255.456C47.2964 255.456 46.6561 253.536 46.6053 253.414C45.9713 252.064 43.9425 249.83 42.3005 250.054C42.0282 250.1 41.7684 250.203 41.538 250.356C41.3075 250.51 41.1116 250.71 40.9628 250.945C40.814 251.18 40.7156 251.443 40.6741 251.719C40.6326 251.994 40.6489 252.275 40.7218 252.544C40.9944 253.696 42.1673 254.547 43.1817 254.995Z" fill="#263238"/>
<path opacity="0.3" d="M72.6627 255.642C72.6627 255.642 73.1953 253.69 73.2143 253.562C73.4172 252.077 72.948 249.082 71.4518 248.365C71.2004 248.25 70.928 248.191 70.6522 248.189C70.3765 248.188 70.1035 248.246 69.8512 248.358C69.5988 248.47 69.3727 248.635 69.1875 248.841C69.0024 249.047 68.8623 249.291 68.7763 249.555C68.3769 250.669 68.8841 252.032 69.4864 252.973C70.1965 254.08 72.6627 255.642 72.6627 255.642Z" fill="#263238"/>
<path opacity="0.3" d="M44.1835 263.52C45.4515 263.699 48.0255 262.938 48.2284 262.88C48.6567 264.382 49.1841 265.853 49.807 267.283C50.1663 268.137 50.5467 268.969 50.9482 269.779C50.7137 269.434 50.4981 269.139 50.4601 269.082C49.49 267.949 46.9604 266.336 45.4324 266.989C45.1814 267.105 44.9574 267.273 44.7748 267.482C44.5923 267.692 44.4553 267.937 44.3729 268.203C44.2904 268.47 44.2642 268.75 44.296 269.027C44.3278 269.304 44.4169 269.571 44.5575 269.811C45.1218 270.848 46.4595 271.36 47.569 271.52C48.6785 271.68 50.9165 271.078 51.5062 270.912C51.6583 271.226 51.8105 271.552 51.969 271.859C52.7234 273.376 53.4779 274.88 54.1753 276.384C54.4226 276.915 54.6508 277.446 54.8727 277.971C54.6635 277.664 54.4796 277.402 54.4479 277.363C53.4779 276.23 50.9482 274.618 49.4203 275.277C49.1695 275.392 48.9455 275.56 48.763 275.769C48.5805 275.977 48.4436 276.222 48.3611 276.488C48.2785 276.754 48.2523 277.034 48.2841 277.31C48.3158 277.587 48.4049 277.853 48.5454 278.093C49.1096 279.13 50.4474 279.642 51.5569 279.808C52.6664 279.974 54.6825 279.424 55.3609 279.226C55.5764 279.776 55.792 280.326 55.9949 280.87C56.109 281.242 56.2485 281.594 56.3436 281.971C56.4387 282.349 56.5528 282.72 56.6542 283.091C56.8254 283.808 57.0029 284.544 57.1551 285.248C57.2629 285.734 57.3516 286.202 57.4467 286.669C57.2058 286.144 56.7176 285.114 56.6669 285.037C55.8808 283.757 53.6174 281.786 52.007 282.202C51.7435 282.28 51.4991 282.413 51.2895 282.592C51.08 282.771 50.91 282.993 50.7905 283.242C50.6711 283.492 50.6048 283.764 50.5959 284.041C50.587 284.318 50.6358 284.594 50.739 284.851C51.1448 285.965 52.4064 286.675 53.4652 287.008C54.6318 287.366 57.2122 287.008 57.5355 287.008C57.6877 287.782 57.8335 288.544 57.9539 289.261C58.2139 290.758 58.4168 292.115 58.5879 293.274H59.6721C59.4819 292.07 59.2473 290.656 58.9366 289.082C58.7781 288.288 58.6006 287.443 58.4104 286.579C59.1872 286.266 59.945 285.907 60.6801 285.504C61.5297 286.432 63.7043 287.52 63.9896 287.661C63.6916 288.397 63.3937 289.107 63.1084 289.773C62.5441 291.091 62.0052 292.262 61.5234 293.274H62.6963C63.102 292.346 63.5522 291.309 64.015 290.163C64.3193 289.414 64.649 288.614 64.9406 287.782C65.2513 287.853 67.8063 288.378 68.9982 288.102C70.076 287.859 71.3884 287.238 71.8702 286.182C71.9932 285.933 72.0625 285.659 72.0738 285.381C72.0851 285.102 72.0381 284.824 71.9358 284.565C71.8335 284.306 71.6782 284.072 71.4801 283.877C71.282 283.683 71.0455 283.533 70.7861 283.437C69.2138 282.906 66.8109 284.717 65.9297 285.914C65.8789 285.984 65.3971 286.822 65.1055 287.354C65.2323 287.014 65.3591 286.714 65.4795 286.336C65.7331 285.645 65.9614 284.947 66.215 284.198C66.3227 283.834 66.4305 283.462 66.5446 283.085C66.6588 282.707 66.7348 282.317 66.8363 281.926C67.0518 281.018 67.223 280.09 67.3815 279.149C67.9775 279.366 70.1204 280.122 71.2299 280.045C72.3394 279.968 73.7215 279.552 74.3619 278.56C74.5218 278.334 74.6328 278.077 74.6876 277.804C74.7425 277.532 74.7399 277.251 74.6801 276.98C74.6203 276.709 74.5046 276.454 74.3405 276.231C74.1764 276.008 73.9677 275.822 73.7279 275.686C72.2506 274.918 69.6069 276.326 68.5544 277.389C68.491 277.459 67.819 278.298 67.4576 278.771C67.5464 278.202 67.6415 277.638 67.7112 277.062C67.9141 275.398 68.0662 273.709 68.2311 272.026C68.2818 271.514 68.3389 271.002 68.3896 270.483C68.6051 270.566 71.1285 271.514 72.3711 271.424C73.4806 271.347 74.8627 270.938 75.5031 269.946C75.663 269.72 75.774 269.462 75.8288 269.19C75.8837 268.918 75.8811 268.637 75.8213 268.366C75.7615 268.095 75.6458 267.84 75.4817 267.617C75.3176 267.394 75.1089 267.208 74.8691 267.072C73.3918 266.304 70.7481 267.712 69.6956 268.774C69.6195 268.858 68.6559 270.054 68.4276 270.387C68.5417 269.261 68.6749 268.128 68.8461 267.027C69.0682 265.531 69.388 264.052 69.8034 262.598C69.8985 262.637 72.5359 263.642 73.8103 263.546C74.9134 263.469 76.2956 263.059 76.9359 262.067C77.0958 261.841 77.2068 261.584 77.2617 261.312C77.3165 261.039 77.3139 260.759 77.2541 260.488C77.1943 260.216 77.0786 259.961 76.9145 259.738C76.7505 259.515 76.5417 259.33 76.3019 259.194C74.8247 258.426 72.1809 259.834 71.1285 260.896C71.0587 260.966 70.3296 261.888 69.9873 262.336L69.9048 262.291C70.3589 260.841 70.9425 259.436 71.6483 258.093C72.0224 257.344 72.4282 256.653 72.8339 255.987C73.3031 256.224 75.4714 257.267 76.6379 257.338C77.8045 257.408 79.1739 257.126 79.9094 256.211C80.0915 256.002 80.228 255.757 80.31 255.491C80.3921 255.225 80.4178 254.945 80.3855 254.669C80.3532 254.392 80.2636 254.126 80.1226 253.886C79.9816 253.647 79.7923 253.441 79.567 253.28C78.1849 252.352 75.4016 253.466 74.2414 254.4C74.178 254.451 73.6074 255.04 73.1699 255.469L73.7342 254.586C74.4316 253.53 75.129 252.602 75.7567 251.789C76.118 251.334 76.4541 250.925 76.7711 250.547C77.3543 250.547 79.7001 250.464 80.7272 249.978C81.7543 249.491 82.8765 248.614 83.1237 247.456C83.1893 247.185 83.1978 246.903 83.1487 246.629C83.0995 246.355 82.9938 246.094 82.8384 245.863C82.683 245.633 82.4814 245.438 82.2466 245.291C82.0117 245.144 81.749 245.049 81.4753 245.011C79.8269 244.832 77.8679 247.117 77.2592 248.486C77.2085 248.602 76.6252 250.547 76.6252 250.547C76.3146 250.906 75.9912 251.29 75.6299 251.725C74.9959 252.525 74.2604 253.434 73.5377 254.477C72.7506 255.596 72.0287 256.761 71.3757 257.965C70.6368 259.306 70.0173 260.711 69.5244 262.163C69.5244 262.163 69.5244 262.202 69.5244 262.221C69.5244 261.728 69.5244 260.352 69.5244 260.25C69.3342 258.765 68.0979 256.006 66.4686 255.706C66.196 255.662 65.9175 255.677 65.6511 255.749C65.3846 255.822 65.1363 255.95 64.9222 256.126C64.7081 256.301 64.533 256.521 64.4084 256.769C64.2838 257.018 64.2124 257.29 64.1988 257.568C64.1037 258.752 64.9533 259.93 65.7775 260.672C66.7095 261.517 69.2962 262.33 69.4991 262.394C69.0331 263.883 68.6688 265.404 68.4086 266.944C68.2501 267.84 68.117 268.749 67.9965 269.664C67.9965 269.242 67.9965 268.858 67.9965 268.806C67.8063 267.322 66.5763 264.563 64.9406 264.262C64.6686 264.22 64.3907 264.236 64.125 264.308C63.8594 264.381 63.6118 264.51 63.3984 264.685C63.1851 264.861 63.0106 265.08 62.8864 265.328C62.7621 265.576 62.6909 265.847 62.6772 266.125C62.5821 267.309 63.4254 268.486 64.2559 269.235C65.0864 269.984 67.2801 270.726 67.8634 270.912C67.8253 271.264 67.7746 271.616 67.7366 271.962C67.5337 273.645 67.3435 275.328 67.1026 276.966C67.0138 277.549 66.9124 278.112 66.8109 278.682C66.8109 278.304 66.8109 277.984 66.8109 277.939C66.6207 276.454 65.3844 273.696 63.755 273.395C63.4766 273.328 63.187 273.324 62.9066 273.382C62.6262 273.44 62.3617 273.559 62.1317 273.731C61.9016 273.903 61.7116 274.123 61.5747 274.377C61.4379 274.631 61.3576 274.912 61.3395 275.2C61.2444 276.378 62.094 277.562 62.9182 278.304C63.7424 279.046 65.7331 279.725 66.4242 279.955C66.3037 280.531 66.1833 281.107 66.0438 281.664C65.936 282.042 65.8599 282.413 65.7331 282.784C65.6063 283.155 65.4922 283.52 65.3781 283.885C65.1308 284.576 64.8772 285.293 64.6173 285.965C64.4398 286.426 64.2622 286.867 64.0847 287.315C64.1735 286.739 64.3256 285.613 64.3256 285.517C64.3098 284.199 63.9583 282.907 63.3049 281.766C63.3177 281.622 63.3177 281.476 63.3049 281.331C63.2672 281.054 63.1717 280.787 63.0247 280.549C62.8776 280.312 62.6824 280.108 62.4518 279.952C62.2212 279.796 61.9605 279.691 61.6868 279.644C61.4131 279.597 61.1327 279.61 60.864 279.68C59.2536 280.109 58.2392 282.95 58.1632 284.448C58.1632 284.538 58.2139 285.498 58.2646 286.106C58.1822 285.754 58.1061 285.408 58.0173 285.05C57.8525 284.333 57.6623 283.622 57.4594 282.854C57.3516 282.49 57.2439 282.118 57.1297 281.747C57.0156 281.376 56.8698 280.998 56.743 280.614C56.426 279.738 56.0583 278.867 55.6715 277.997C56.3055 277.843 58.4928 277.28 59.3741 276.595C60.2554 275.91 61.1873 274.803 61.181 273.619C61.1881 273.341 61.1372 273.064 61.0314 272.807C60.9256 272.55 60.7674 272.318 60.5671 272.127C60.3668 271.935 60.1288 271.789 59.8687 271.696C59.6085 271.604 59.332 271.568 59.0571 271.59C57.4024 271.77 55.9695 274.426 55.6715 275.891C55.6715 275.981 55.5574 277.056 55.513 277.651C55.2785 277.126 55.0439 276.608 54.7903 276.09C54.0485 274.586 53.256 273.094 52.4762 271.61L51.7598 270.234C51.9817 270.182 54.6128 269.594 55.6018 268.8C56.4767 268.122 57.4087 267.008 57.4024 265.824C57.4105 265.545 57.3602 265.268 57.2548 265.011C57.1494 264.753 56.9912 264.521 56.7907 264.329C56.5901 264.138 56.3517 263.991 56.0911 263.899C55.8305 263.807 55.5536 263.772 55.2785 263.795C53.6301 263.974 52.1972 266.63 51.8992 268.096C51.8992 268.205 51.7344 269.754 51.7217 270.15C51.2018 269.139 50.6883 268.128 50.2255 267.11C49.5978 265.739 49.0578 264.328 48.6088 262.886C48.7102 262.886 51.4554 262.246 52.4698 261.446C53.3448 260.768 54.2767 259.654 54.2704 258.47C54.2774 258.192 54.2265 257.915 54.1208 257.657C54.0151 257.4 53.857 257.168 53.6568 256.976C53.4566 256.784 53.2187 256.637 52.9585 256.544C52.6984 256.451 52.4217 256.414 52.1465 256.435C50.4981 256.621 49.0653 259.277 48.7673 260.742C48.7673 260.838 48.6405 262.022 48.6024 262.579H48.5073C48.093 261.115 47.8108 259.615 47.6641 258.099C47.569 257.267 47.5246 256.467 47.5056 255.686C48.0255 255.622 50.4157 255.302 51.4047 254.694C52.3938 254.086 53.3955 253.114 53.5159 251.936C53.5546 251.659 53.5345 251.377 53.4571 251.108C53.3797 250.84 53.2468 250.591 53.067 250.378C52.8872 250.165 52.6648 249.993 52.4143 249.873C52.1638 249.753 51.891 249.689 51.6139 249.683C49.9529 249.683 48.2411 252.16 47.8099 253.581C47.8099 253.664 47.6197 254.477 47.5056 255.072C47.5056 254.72 47.5056 254.355 47.5056 254.016C47.5056 252.736 47.5817 251.59 47.6641 250.56C47.7148 249.978 47.7656 249.453 47.829 248.96C48.3045 248.627 50.2255 247.258 50.8214 246.278C51.4174 245.299 51.8675 243.949 51.4554 242.848C51.3626 242.586 51.2162 242.346 51.0258 242.144C50.8354 241.942 50.6051 241.783 50.3499 241.677C50.0948 241.571 49.8203 241.52 49.5444 241.528C49.2685 241.535 48.9973 241.601 48.7483 241.722C47.2774 242.496 46.8843 245.491 47.1316 246.97C47.1316 247.098 47.7085 249.056 47.7339 249.037H47.7656C47.6958 249.51 47.6324 250.016 47.5754 250.573C47.4739 251.597 47.3725 252.762 47.3408 254.035C47.2952 255.405 47.327 256.777 47.4359 258.144C47.5516 259.667 47.802 261.177 48.184 262.656V262.707C47.9241 262.291 47.1506 261.158 47.0808 261.082C46.1108 259.949 43.5812 258.336 42.0532 258.989C41.8022 259.105 41.5781 259.273 41.3956 259.482C41.2131 259.692 41.0761 259.937 40.9936 260.203C40.9112 260.47 40.885 260.75 40.9168 261.027C40.9486 261.304 41.0377 261.571 41.1783 261.811C41.7362 262.848 43.112 263.36 44.1835 263.52Z" fill="#263238"/>
<path d="M214.52 284L218.958 292.173C220.58 292.543 222.28 292.316 223.751 291.533C226.23 290.195 228.874 288.192 230.694 287.526C232.513 286.861 237.966 283.354 239.455 280.685C240.945 278.016 241.434 276.205 238.955 276.845C236.839 277.432 234.687 277.876 232.513 278.176C230.199 278.515 225.406 278.176 225.406 278.176L214.52 284Z" fill="white" stroke="#263238" stroke-miterlimit="10"/>
<path d="M157.543 281.44C158.845 283.428 160.531 285.13 162.501 286.445C165.48 288.282 170.438 289.453 170.109 291.117C169.779 292.781 166.305 294.118 162.843 293.619C158.186 292.742 153.6 291.516 149.123 289.952C147.139 289.114 145.985 288.947 145.985 287.616C145.985 286.285 149.624 276.941 149.624 276.941L157.543 281.44Z" fill="white" stroke="#263238" stroke-miterlimit="10"/>
<path d="M176.506 133.12C176.506 133.12 170.388 140.096 168.067 144.64C165.747 149.184 156.237 164.09 157.562 166.336C158.887 168.582 165.709 175.763 169.196 178.176C172.683 180.589 175.726 183.187 175.726 183.187L178.363 181.178C178.363 181.178 173.557 174.342 170.755 169.702C167.953 165.062 166.267 162.662 166.267 162.662C166.267 162.662 174.014 153.062 175.986 150.56C177.957 148.058 178.649 137.12 178.737 136.141C178.826 135.162 178.065 131.84 176.506 133.12Z" fill="white" stroke="#263238" stroke-miterlimit="10"/>
<path d="M197.719 99.2639C197.719 99.2639 199.881 101.613 200.065 104.102C200.249 106.592 199.596 108.992 201.162 110.048C202.728 111.104 204.566 111.328 203.628 112.038C202.69 112.749 200.959 114.074 200.959 114.074C200.959 114.074 200.192 121.658 199.393 122.054C198.594 122.451 192.02 123.277 192.02 123.277C192.02 123.277 189.667 127.296 190.168 129.6C190.669 131.904 194.701 139.469 197.193 144.134C199.685 148.8 199.824 150.624 198.835 155.219C197.846 159.814 194.727 179.347 194.892 182.515C195.056 185.683 197.371 190.355 197.371 190.355C197.371 190.355 210.596 227.059 212.079 231.226C213.563 235.392 213.075 245.242 214.064 248.909C215.053 252.576 221.501 265.427 222.496 267.763C223.491 270.099 227.245 275.155 227.245 275.155L228.069 276.826C228.069 276.826 225.755 278.829 223.111 280.826C220.989 282.407 218.636 283.646 216.137 284.499C214.983 284.832 213.493 285.331 213.493 285.331C213.493 285.331 208.421 276.269 206.43 271.43C204.44 266.592 201.143 261.254 200.483 254.253C199.824 247.251 197.675 240.902 195.855 235.398C194.036 229.894 188.089 220.218 188.089 220.218C188.089 220.218 183.296 239.571 179.492 244.243C175.688 248.915 170.242 261.421 166.767 267.763C163.293 274.106 161.645 275.603 161.315 278.605C161.129 280.368 160.741 282.103 160.161 283.776C160.161 283.776 154.373 282.611 151.399 280.608C149.432 279.238 147.605 277.673 145.947 275.936C145.947 275.936 154.189 258.086 158.177 250.246C162.165 242.406 166.932 225.056 167.097 223.885C167.262 222.714 168.917 212.877 169.576 210.707C170.235 208.538 170.407 208.371 170.242 207.206C170.077 206.042 165.613 199.034 167.427 192.192C169.24 185.35 174.172 178.637 174.172 178.637C174.172 178.637 177.064 168.397 177.038 165.709C177.013 163.021 174.236 156.883 173.469 150.918C172.702 144.954 173.069 136.397 175.738 132.179C178.408 127.962 182.712 121.299 182.953 119.77C183.194 118.24 184.012 116.173 181.977 110.976C179.942 105.779 184.741 101.235 188.082 99.3087C191.424 97.3823 197.719 99.2639 197.719 99.2639Z" fill="white" stroke="#263238" stroke-miterlimit="10"/>
<path d="M198.214 110.349C198.525 110.349 198.778 109.713 198.778 108.928C198.778 108.143 198.525 107.507 198.214 107.507C197.902 107.507 197.65 108.143 197.65 108.928C197.65 109.713 197.902 110.349 198.214 110.349Z" fill="#263238"/>
<path d="M196.718 106.566C196.718 106.566 197.84 105.242 198.968 106.374" stroke="#263238" stroke-miterlimit="10"/>
<path d="M200.464 116.595C199.898 116.672 199.321 116.568 198.817 116.295C198.313 116.023 197.907 115.597 197.656 115.078" stroke="#263238" stroke-miterlimit="10"/>
<path d="M193.573 198.694L188.615 218.214" stroke="#263238" stroke-miterlimit="10"/>
<path d="M205.803 244.07C205.803 244.07 204.782 257.754 204.148 262.4" stroke="#263238" stroke-miterlimit="10"/>
<path d="M207.787 251.917C207.787 251.917 206.297 262.758 206.297 263.757" stroke="#263238" stroke-miterlimit="10"/>
<path d="M188.767 110.47C188.767 110.47 185.978 106.33 183.873 109.331C181.768 112.333 183.657 115.366 184.843 115.782C185.131 115.909 185.441 115.975 185.756 115.975C186.07 115.975 186.381 115.909 186.669 115.782C185.965 117.903 184.938 119.901 183.625 121.702C181.514 124.538 175.916 127.296 171.377 126.464C166.837 125.632 158.284 117.402 159.926 110.419C161.569 103.437 163.306 99.968 165.284 99.8144C167.262 99.6608 168.454 102.259 170.755 102.086C173.057 101.914 175.878 92.8384 184.031 91.0592C192.184 89.28 199.108 93.28 199.976 96.0576C200.845 98.8352 199.634 100.435 198.81 100.493C197.986 100.55 194.708 98.7904 192.812 100.102C190.916 101.414 192.178 102.829 192.432 103.981C192.685 105.133 190.764 106.112 190.853 107.277C190.942 108.442 191.202 109.76 190.542 109.837C189.922 109.956 189.324 110.17 188.767 110.47Z" fill="#263238" stroke="#263238" stroke-miterlimit="10"/>
<path d="M197.174 144.134C196.54 142.938 195.792 141.574 195.037 140.109C194.79 140.234 194.521 140.312 194.245 140.339C192.102 140.499 187.271 133.331 182.427 130.515C180.132 129.178 178.325 129.459 177.057 130.125C176.835 130.483 176.613 130.829 176.423 131.168C177.405 130.741 178.477 130.564 179.542 130.653C180.608 130.742 181.636 131.095 182.535 131.68C187.22 134.509 190.967 140.416 191.931 144.525C192.895 148.634 188.247 155.341 182.066 156.973C178.16 158.003 175.593 156.454 173.938 153.434C175.003 158.554 177.051 163.411 177.108 165.709C177.108 168.384 174.242 178.637 174.242 178.637C174.242 178.637 173.989 179.085 173.608 179.853C181.413 182.17 191.265 183.283 195.082 182.515C195.5 176.55 198.036 159.181 198.886 155.219C199.824 150.624 199.71 148.8 197.174 144.134Z" fill="#263238" stroke="#263238" stroke-miterlimit="10"/>
<path d="M180.424 132.339C180.424 132.339 184.912 132.506 187.157 136.013C189.401 139.52 199.602 154.323 201.029 155.725C202.455 157.126 204.465 159.648 204.465 159.648C204.465 159.648 220.347 150.266 223.168 148.051C225.989 145.837 228.684 141.952 228.684 141.952C228.684 141.952 228.988 139.251 229.09 138.406C229.191 137.562 231.664 137.376 231.664 137.376C231.664 137.376 233.331 135.245 234.662 135.315C235.994 135.386 236.304 137.363 236.304 137.363C236.304 137.363 238.023 140.416 238.13 141.914C238.238 143.411 235.163 146.65 233.883 147.251C232.671 147.727 231.422 148.1 230.148 148.365C230.148 148.365 219.928 160.333 216.543 163.936C213.502 167.02 210.077 169.692 206.354 171.885C205.086 172.486 199.907 169.856 199.051 169.421C198.195 168.986 176.461 148.358 176.461 148.358" fill="white"/>
<path d="M180.424 132.339C180.424 132.339 184.912 132.506 187.157 136.013C189.401 139.52 199.602 154.323 201.029 155.725C202.455 157.126 204.465 159.648 204.465 159.648C204.465 159.648 220.347 150.266 223.168 148.051C225.989 145.837 228.684 141.952 228.684 141.952C228.684 141.952 228.988 139.251 229.09 138.406C229.191 137.562 231.664 137.376 231.664 137.376C231.664 137.376 233.331 135.245 234.662 135.315C235.994 135.386 236.304 137.363 236.304 137.363C236.304 137.363 238.023 140.416 238.13 141.914C238.238 143.411 235.163 146.65 233.883 147.251C232.671 147.727 231.422 148.1 230.148 148.365C230.148 148.365 219.928 160.333 216.543 163.936C213.502 167.02 210.077 169.692 206.354 171.885C205.086 172.486 199.907 169.856 199.051 169.421C198.195 168.986 176.461 148.358 176.461 148.358" stroke="#263238" stroke-miterlimit="10"/>
<path d="M145.82 139.469C145.82 139.469 151.399 148.365 153.916 152.179C155.994 155.128 158.28 157.922 160.757 160.538C160.757 160.538 165.252 156.538 168.853 152.909C172.454 149.28 174.249 143.098 174.249 143.098C174.249 143.098 172.087 139.258 172.087 138.56C172.087 137.862 174.071 135.654 174.623 135.11C174.821 134.946 175.053 134.828 175.302 134.765C175.551 134.702 175.81 134.695 176.062 134.746C176.317 134.483 176.627 134.281 176.969 134.155C177.311 134.029 177.677 133.981 178.04 134.016C179.479 134.016 182.896 137.472 183.258 140.013C183.619 142.554 181.102 145.28 180.018 146.912C178.934 148.544 174.084 157.632 172.099 161.99C170.115 166.349 163.464 173.798 161.321 174.15C159.178 174.502 148.724 165.613 147.462 163.981C146.2 162.349 147.462 149.088 146.562 146.906C145.662 144.723 145.82 139.469 145.82 139.469Z" fill="white" stroke="#263238" stroke-miterlimit="10"/>
<path d="M176.068 134.746C176.068 134.746 180.563 138.195 178.769 138.925C178.532 139.028 178.277 139.081 178.019 139.082C177.761 139.082 177.505 139.03 177.268 138.927C177.031 138.825 176.817 138.675 176.639 138.486C176.461 138.298 176.323 138.075 176.233 137.83C176.233 137.83 178.034 140.013 177.317 141.83" stroke="#263238" stroke-miterlimit="10"/>
<path d="M177.685 139.283C177.685 139.283 180.221 141.843 181.489 142.01" stroke="#263238" stroke-miterlimit="10"/>
<path d="M121.189 204.314C121.189 204.314 115.249 227.354 113.27 229.914C111.292 232.474 101.757 240.992 99.9564 245.914C98.1559 250.835 89.4384 270.234 88.3606 273.325C87.2828 276.416 86.3825 277.318 86.3825 277.318L93.9398 281.498C93.9398 281.498 101.935 266.618 106.252 261.171C110.57 255.725 116.149 247.181 120.111 243.187C124.074 239.194 135.765 222.662 135.765 222.662L121.189 204.314Z" fill="white" stroke="#263238" stroke-miterlimit="10"/>
<path d="M135.765 222.656L121.183 204.314C121.183 204.314 115.933 224.704 113.657 229.274C116.715 232.937 120.825 235.551 125.418 236.755C130.179 230.541 135.765 222.656 135.765 222.656Z" fill="#263238" stroke="#263238" stroke-miterlimit="10"/>
<path d="M93.9398 281.491C93.9398 281.491 95.7911 278.195 97.9657 273.811C95.0115 272.932 92.1991 271.626 89.6159 269.933C88.9819 271.77 88.5952 272.634 88.3479 273.318C87.2638 276.41 86.3698 277.312 86.3698 277.312L93.9398 281.491Z" fill="white" stroke="#263238" stroke-miterlimit="10"/>
<path d="M97.1732 284.397C97.1732 284.397 96.4568 284.038 96.2729 281.126C96.089 278.214 95.734 276.224 94.6562 278.042L93.5784 279.859L86.56 275.68C86.56 275.68 85.292 276.768 85.292 277.862C85.292 278.957 80.2581 283.853 81.3359 285.306C82.4137 286.758 86.1923 286.758 89.9709 289.306C93.7496 291.853 94.4723 293.146 99.1513 293.299C103.83 293.453 104.724 291.846 104.724 290.938C104.724 290.029 100.92 288.576 99.6902 287.302C98.8 286.38 97.9598 285.41 97.1732 284.397Z" fill="white" stroke="#263238" stroke-miterlimit="10"/>
<path d="M104.73 290.938C104.73 290.707 104.496 290.451 104.096 290.163C103.177 290.758 101.136 291.616 97.3317 291.117C91.7525 290.394 91.7525 288.755 88.6966 286.035C86.6424 284.205 83.6246 283.36 81.8494 283.002C81.2725 283.968 80.9618 284.826 81.3168 285.306C82.3946 286.758 86.1733 286.758 89.9519 289.306C93.7306 291.853 94.4533 293.146 99.1322 293.299C103.811 293.453 104.73 291.84 104.73 290.938Z" fill="white" stroke="#263238" stroke-miterlimit="10"/>
<path d="M119.027 191.053C119.027 191.053 117.049 197.587 120.65 206.854C124.251 216.122 138.998 232.282 143.677 236.294L148.356 240.294C148.356 240.294 149.079 251.174 154.297 258.637L172.106 284.07L178.046 279.526C178.046 279.526 173.19 273.715 171.751 268.083C170.311 262.451 162.57 245.562 161.315 239.923C160.06 234.285 155.374 224.486 154.835 223.578C154.297 222.669 144.552 204.16 144.552 204.16L146.017 195.2L119.027 191.053Z" fill="white" stroke="#263238" stroke-miterlimit="10"/>
<path d="M143.024 235.699C144.432 233.779 148.483 229.421 157.099 228.346C155.996 225.85 155.057 223.942 154.835 223.565C154.297 222.656 144.552 204.16 144.552 204.16L146.017 195.2L119.027 191.027C119.027 191.027 117.049 197.562 120.65 206.829C124.093 215.725 137.762 230.918 143.024 235.699Z" fill="#263238" stroke="#263238" stroke-miterlimit="10"/>
<path d="M166.469 275.994C169.639 280.544 172.106 284.051 172.106 284.051L178.046 279.507C176.11 277.107 174.451 274.491 173.101 271.712C171.134 273.491 168.894 274.937 166.469 275.994Z" fill="white" stroke="#263238" stroke-miterlimit="10"/>
<path d="M177.685 274.419C177.685 274.419 174.99 271.859 175.345 275.149C175.7 278.438 176.785 279.507 176.785 279.507C176.785 279.507 169.411 282.957 170.128 284.595C170.555 285.566 171.1 286.48 171.751 287.315C171.751 287.315 176.252 294.4 178.224 293.677C180.195 292.954 183.625 288.41 186.681 286.957C189.737 285.504 193.522 280.595 194.422 277.69C195.323 274.784 194.777 273.696 192.622 274.963C190.466 276.23 187.582 277.875 184.342 277.875C182.346 277.846 180.404 277.213 178.769 276.058L177.685 274.419Z" fill="white" stroke="#263238" stroke-miterlimit="10"/>
<path d="M193.922 274.451C193.905 274.501 193.892 274.553 193.884 274.605C192.799 279.507 186.681 282.957 183.803 285.683C181.444 287.91 176.924 290.995 175.358 292.038C176.423 293.146 177.495 293.958 178.224 293.677C180.208 292.947 183.625 288.41 186.681 286.957C189.737 285.504 193.522 280.595 194.422 277.69C195.101 275.501 194.955 274.342 193.922 274.451Z" fill="white" stroke="#263238" stroke-miterlimit="10"/>
<path d="M151.887 96.512C152.872 98.342 153.529 100.333 153.827 102.394C154.246 105.594 154.106 107.443 155.355 108.986C156.604 110.528 157.72 111.507 157.441 112.346C157.162 113.184 155.216 114.17 155.216 114.17C155.216 114.17 153.555 121.037 152.046 122.157C150.537 123.277 145.376 121.882 145.376 121.882C144.131 123.791 143.502 126.042 143.576 128.326C143.715 132.109 146.746 137.997 148.572 143.462C150.397 148.928 150.657 153.555 148.851 160.845C147.044 168.134 146.353 183.834 146.492 188.038C146.632 192.243 146.625 194.483 146.625 194.483C146.625 194.483 148.711 196.864 139.131 196.864C129.552 196.864 120.523 193.222 119.553 192.8C119.006 192.601 118.553 192.201 118.285 191.68C118.285 191.68 120.504 167.149 119.813 165.19C119.122 163.232 118.425 154.24 118.425 154.24C118.425 154.24 118.697 138.957 123.002 133.21C127.307 127.462 132.309 124.941 134.11 121.997C135.194 120.089 135.589 117.861 135.226 115.693C131.999 113.011 129.592 109.46 128.284 105.453C126.058 98.7264 132.309 91.4368 136.887 89.7536C141.464 88.0704 150.911 90.3168 152.299 92C153.688 93.6832 151.887 96.512 151.887 96.512Z" fill="white" stroke="#263238" stroke-miterlimit="10"/>
<path d="M152.299 92.0257C150.911 90.3425 141.471 88.0961 136.887 89.7793C132.303 91.4625 126.058 98.7393 128.284 105.478C129.592 109.486 131.999 113.036 135.226 115.718C135.226 115.718 135.264 115.917 135.302 116.256C136.471 115.902 137.607 115.441 138.694 114.88C138.14 114.464 137.629 113.995 137.166 113.478C136.754 112.915 135.638 108.998 137.863 108.288C140.089 107.578 140.64 109.133 141.033 109.971C141.426 110.81 142.561 109.971 142.98 109.549C143.398 109.126 143.119 105.907 143.119 105.907C144.163 105.104 145.139 104.213 146.036 103.245C147.304 101.843 142.561 98.6177 142.561 98.6177C142.561 98.6177 146.036 98.4769 147.842 98.1953C149.267 97.8632 150.627 97.2967 151.868 96.5185C151.868 96.5185 153.688 93.7089 152.299 92.0257Z" fill="#263238" stroke="#263238" stroke-miterlimit="10"/>
<path d="M145.357 121.882L141.889 120.198L144.248 123.981L145.357 121.882Z" fill="#263238" stroke="#263238" stroke-miterlimit="10"/>
<path d="M153.276 108.102C153.333 108.877 153.162 109.517 152.895 109.542C152.629 109.568 152.363 108.954 152.306 108.179C152.249 107.405 152.414 106.765 152.68 106.746C152.946 106.726 153.212 107.334 153.276 108.102Z" fill="#263238"/>
<path d="M151.051 105.478C151.051 105.478 152.027 103.936 152.997 104.781" stroke="#263238" stroke-miterlimit="10"/>
<path d="M153.688 116.134C153.688 116.134 151.608 115.29 151.608 114.733" stroke="#263238" stroke-miterlimit="10"/>
<path d="M146.612 194.483C146.612 194.483 146.612 192.243 146.473 188.038C146.334 183.834 147.025 168.134 148.831 160.845C150.638 153.555 150.359 148.928 148.553 143.462C147.963 141.67 147.234 139.834 146.517 138.035C143.278 138.714 139.6 133.754 137.381 130.022C136.652 128.729 135.566 127.678 134.256 126.997C132.946 126.315 131.468 126.032 130.002 126.182H129.964C129.507 126.573 129.032 126.976 128.537 127.411C130.233 127.826 131.808 128.642 133.13 129.791C134.453 130.941 135.486 132.391 136.145 134.022C138.846 140.563 134.351 148.742 128.949 151.302C125.018 153.158 120.707 151.443 118.659 150.381C118.476 152.71 118.45 154.291 118.45 154.291C118.45 154.291 119.141 163.251 119.839 165.222C120.536 167.194 118.311 191.712 118.311 191.712C118.578 192.233 119.031 192.633 119.579 192.832C120.549 193.254 129.577 196.896 139.157 196.896C148.736 196.896 146.612 194.483 146.612 194.483Z" fill="#2AD882" stroke="#263238" stroke-miterlimit="10"/>
<path d="M130.724 129.114C130.724 129.114 123.529 128.749 120.466 132.563C117.404 136.378 102.657 159.264 101.935 161.082C101.212 162.899 103.012 165.619 103.012 165.619C103.012 165.619 125.507 185.965 126.223 186.144C126.939 186.323 131.086 191.232 132.341 191.597C133.596 191.962 137.743 190.867 138.282 190.317C138.821 189.766 141.338 187.411 140.26 186.477C139.182 185.542 138.459 185.024 138.459 184.48C138.459 183.936 138.998 181.92 137.02 181.574C135.042 181.229 128.924 181.21 128.924 181.21C128.924 181.21 125.868 177.581 121.906 171.949C119.629 168.736 117.528 165.401 115.61 161.958L132.164 145.792" fill="white"/>
<path d="M130.724 129.114C130.724 129.114 123.529 128.749 120.466 132.563C117.404 136.378 102.657 159.264 101.935 161.082C101.212 162.899 103.012 165.619 103.012 165.619C103.012 165.619 125.507 185.965 126.223 186.144C126.939 186.323 131.086 191.232 132.341 191.597C133.596 191.962 137.743 190.867 138.282 190.317C138.821 189.766 141.338 187.411 140.26 186.477C139.182 185.542 138.459 185.024 138.459 184.48C138.459 183.936 138.998 181.92 137.02 181.574C135.042 181.229 128.924 181.21 128.924 181.21C128.924 181.21 125.868 177.581 121.906 171.949C119.629 168.736 117.528 165.401 115.61 161.958L132.164 145.792" stroke="#263238" stroke-miterlimit="10"/>
</svg>
